# xmcd CD database file
#
# Track frame offsets:
#	150
#	25104
#	46340
#	74363
#	90678
#	106081
#	141612
#	181515
#	203316
#
# Disc length: 3096 seconds
#
# Revision: 0
# Processed by: cddbd v1.5.2PL0 Copyright (c) Steve Scherf et al.
# Submitted via: CDex 1.70beta2
#
DISCID=6e0c1609
DTITLE=Joe Hertenstein - Future Drone
DYEAR=2011
DGENRE=Jazz
TTITLE0=Future Drone
TTITLE1=Paanicballad
TTITLE2=The Mirror
TTITLE3=The Ticker
TTITLE4=Two Days Ahead
TTITLE5=Seven For Nothing
TTITLE6=Rotten Strawberry
TTITLE7=Ballad For Paul and Poo
TTITLE8=breaking a vow
EXTD=YEAR: 2011
EXTT0=
EXTT1=
EXTT2=
EXTT3=
EXTT4=
EXTT5=
EXTT6=
EXTT7=
EXTT8=
PLAYORDER=
